<svg width="1600" height="900" viewBox="0 0 1600 900" fill="none" xmlns="http://www.w3.org/2000/svg">
  <rect width="1600" height="900" rx="40" fill="#09111F"/>
  <circle cx="234" cy="161" r="210" fill="#18346A" fill-opacity="0.55"/>
  <circle cx="1370" cy="121" r="180" fill="#3A4C92" fill-opacity="0.45"/>
  <circle cx="1307" cy="778" r="240" fill="#132C54" fill-opacity="0.55"/>
  <rect x="82" y="88" width="1436" height="724" rx="32" fill="#101A2D" stroke="#23314F" stroke-width="2"/>
  <rect x="126" y="132" width="1348" height="52" rx="18" fill="#18243B"/>
  <circle cx="164" cy="158" r="8" fill="#FF6B6B"/>
  <circle cx="190" cy="158" r="8" fill="#F7B955"/>
  <circle cx="216" cy="158" r="8" fill="#4BD37B"/>
  <rect x="126" y="218" width="258" height="550" rx="24" fill="#0E1627" stroke="#22304A"/>
  <rect x="414" y="218" width="653" height="550" rx="24" fill="#0C1423" stroke="#22304A"/>
  <rect x="1097" y="218" width="377" height="550" rx="24" fill="#0E1627" stroke="#22304A"/>
  <rect x="154" y="252" width="168" height="20" rx="10" fill="#5FB0FF" fill-opacity="0.85"/>
  <rect x="154" y="295" width="192" height="12" rx="6" fill="#2E476D"/>
  <rect x="154" y="323" width="156" height="12" rx="6" fill="#2E476D"/>
  <rect x="154" y="381" width="200" height="84" rx="18" fill="#162844"/>
  <rect x="154" y="487" width="200" height="84" rx="18" fill="#162844"/>
  <rect x="154" y="593" width="200" height="84" rx="18" fill="#162844"/>
  <rect x="448" y="254" width="256" height="28" rx="14" fill="#E9F0FF"/>
  <rect x="448" y="302" width="488" height="12" rx="6" fill="#32476E"/>
  <rect x="448" y="328" width="442" height="12" rx="6" fill="#32476E"/>
  <rect x="448" y="374" width="585" height="112" rx="20" fill="#121E34"/>
  <rect x="476" y="404" width="128" height="14" rx="7" fill="#63B3FF"/>
  <rect x="476" y="438" width="518" height="12" rx="6" fill="#39507B"/>
  <rect x="476" y="464" width="478" height="12" rx="6" fill="#39507B"/>
  <rect x="448" y="522" width="585" height="208" rx="20" fill="#121E34"/>
  <rect x="476" y="552" width="204" height="14" rx="7" fill="#8AA0FF"/>
  <rect x="476" y="586" width="518" height="12" rx="6" fill="#39507B"/>
  <rect x="476" y="612" width="490" height="12" rx="6" fill="#39507B"/>
  <rect x="476" y="638" width="442" height="12" rx="6" fill="#39507B"/>
  <rect x="1131" y="252" width="190" height="20" rx="10" fill="#E9F0FF"/>
  <rect x="1131" y="302" width="309" height="94" rx="18" fill="#172843"/>
  <rect x="1156" y="330" width="176" height="12" rx="6" fill="#63B3FF"/>
  <rect x="1156" y="356" width="230" height="10" rx="5" fill="#3A507A"/>
  <rect x="1131" y="428" width="309" height="130" rx="18" fill="#172843"/>
  <rect x="1156" y="458" width="206" height="12" rx="6" fill="#8AA0FF"/>
  <rect x="1156" y="484" width="238" height="10" rx="5" fill="#3A507A"/>
  <rect x="1156" y="506" width="210" height="10" rx="5" fill="#3A507A"/>
  <rect x="1131" y="590" width="309" height="144" rx="18" fill="#172843"/>
  <rect x="1156" y="620" width="188" height="12" rx="6" fill="#63B3FF"/>
  <rect x="1156" y="646" width="230" height="10" rx="5" fill="#3A507A"/>
  <rect x="1156" y="668" width="252" height="10" rx="5" fill="#3A507A"/>
  <text x="126" y="835" fill="#EAF2FF" font-family="Arial, sans-serif" font-size="82" font-weight="700">WikiLive</text>
  <text x="127" y="874" fill="#8FA5C7" font-family="Arial, sans-serif" font-size="30">Collaborative wiki workspace with live comments, history and AI assistance</text>
</svg>
